<svg width="23" height="23" viewBox="0 0 23 23" fill="none" xmlns="http://www.w3.org/2000/svg">
<path d="M20.685 4.59251C20.4858 4.59845 20.2968 4.68169 20.1579 4.82461L8.43332 16.5492L3.60871 11.7246C3.53807 11.651 3.45345 11.5923 3.35982 11.5518C3.26619 11.5113 3.16542 11.49 3.06342 11.4889C2.96143 11.4879 2.86025 11.5072 2.76581 11.5458C2.67137 11.5843 2.58558 11.6413 2.51345 11.7135C2.44133 11.7856 2.38432 11.8714 2.34576 11.9658C2.30721 12.0603 2.28788 12.1614 2.28892 12.2634C2.28996 12.3654 2.31134 12.4662 2.3518 12.5598C2.39227 12.6535 2.45102 12.7381 2.5246 12.8087L7.89126 18.1754C8.03505 18.3191 8.23002 18.3999 8.43332 18.3999C8.63662 18.3999 8.83159 18.3191 8.97538 18.1754L21.242 5.90872C21.3528 5.80103 21.4285 5.66239 21.4591 5.51096C21.4898 5.35953 21.4739 5.20237 21.4137 5.06009C21.3535 4.91781 21.2517 4.79703 21.1217 4.7136C20.9917 4.63016 20.8394 4.58796 20.685 4.59251Z" fill="#C949CA"/>
</svg>
